<svg width="11" height="11" viewBox="0 0 11 11" fill="none" xmlns="http://www.w3.org/2000/svg">
<path d="M5.5 3.55965H6C6 2.93315 6.25503 2.38411 6.66255 1.97511C7.08907 1.56086 7.64042 1.30737 8.25 1.30737C8.87558 1.30737 9.42397 1.56244 9.83264 1.97029C10.2465 2.39717 10.5 2.94916 10.5 3.55965C10.5 4.18738 10.244 4.73734 9.83505 5.1466L5.5 9.48524L1.16748 5.14913C0.753501 4.72224 0.5 4.1702 0.5 3.55965C0.5 2.93316 0.755026 2.38412 1.16254 1.97512C1.58906 1.56086 2.14041 1.30737 2.75 1.30737C3.37558 1.30737 3.92397 1.56244 4.33264 1.97029C4.74655 2.39717 5 2.94916 5 3.55965H5.5Z" fill="#F6ED1E" stroke="black"/>
</svg>
